<mxfile host="app.diagrams.net" modified="2022-06-01T12:39:27.000Z" agent="5.0 (Windows NT 10.0; Win64; x64) AppleWebKit/537.36 (KHTML, like Gecko) Chrome/101.0.4951.64 Safari/537.36 Edg/101.0.1210.53" etag="ChduKkbiOzUlNF6Mtr2i" version="18.2.0" type="github">
  <diagram id="W2HWCewwAggoOsEGd6kA" name="Page-1">
    <mxGraphModel dx="813" dy="449" grid="1" gridSize="10" guides="1" tooltips="1" connect="1" arrows="1" fold="1" page="1" pageScale="1" pageWidth="827" pageHeight="1169" math="1" shadow="0">
      <root>
        <mxCell id="0" />
        <mxCell id="1" parent="0" />
        <mxCell id="wGAC3NJqTAk7x0Rz0knj-1" value="&lt;font face=&quot;Lucida Console&quot;&gt;&lt;span style=&quot;color: rgb(17, 17, 17); font-size: 18px; text-align: left; background-color: rgb(255, 255, 255);&quot;&gt;♡&lt;/span&gt;&lt;span style=&quot;color: rgb(17, 17, 17); font-size: 18px; text-align: left; background-color: rgb(255, 255, 255);&quot;&gt;♣&lt;/span&gt;&lt;span style=&quot;color: rgb(17, 17, 17); font-size: 18px; text-align: left; background-color: rgb(255, 255, 255);&quot;&gt;♡&lt;/span&gt;&lt;span style=&quot;color: rgb(17, 17, 17); font-size: 18px; text-align: left; background-color: rgb(255, 255, 255);&quot;&gt;♣&amp;nbsp;&lt;/span&gt;&lt;span style=&quot;font-size: 14px; text-align: left; background-color: rgb(255, 255, 255);&quot;&gt;\(X_{11}\)&lt;/span&gt;&lt;span style=&quot;color: rgb(17, 17, 17); font-size: 18px; text-align: left; background-color: rgb(255, 255, 255);&quot;&gt;&lt;br&gt;&lt;/span&gt;&lt;span style=&quot;color: rgb(17, 17, 17); font-size: 18px; text-align: left; background-color: rgb(255, 255, 255);&quot;&gt;♡&lt;/span&gt;&lt;span style=&quot;color: rgb(17, 17, 17); font-size: 18px; text-align: left; background-color: rgb(255, 255, 255);&quot;&gt;♣&lt;/span&gt;&lt;span style=&quot;color: rgb(17, 17, 17); font-size: 18px; text-align: left; background-color: rgb(255, 255, 255);&quot;&gt;♣&lt;/span&gt;&lt;span style=&quot;color: rgb(17, 17, 17); font-size: 18px; text-align: left; background-color: rgb(255, 255, 255);&quot;&gt;♡&amp;nbsp;&lt;/span&gt;&lt;span style=&quot;font-size: 14px; text-align: left; background-color: rgb(255, 255, 255);&quot;&gt;\(X_{10}\)&lt;/span&gt;&lt;span style=&quot;color: rgb(17, 17, 17); font-size: 18px; text-align: left; background-color: rgb(255, 255, 255);&quot;&gt;&lt;br&gt;&lt;/span&gt;&lt;span style=&quot;color: rgb(17, 17, 17); font-size: 18px; text-align: left; background-color: rgb(255, 255, 255);&quot;&gt;♣&lt;/span&gt;&lt;span style=&quot;color: rgb(17, 17, 17); font-size: 18px; text-align: left; background-color: rgb(255, 255, 255);&quot;&gt;♡&lt;/span&gt;&lt;span style=&quot;color: rgb(17, 17, 17); font-size: 18px; text-align: left; background-color: rgb(255, 255, 255);&quot;&gt;♡&lt;/span&gt;&lt;span style=&quot;color: rgb(17, 17, 17); font-size: 18px; text-align: left; background-color: rgb(255, 255, 255);&quot;&gt;♣&amp;nbsp;&lt;/span&gt;&lt;span style=&quot;font-size: 14px; text-align: left; background-color: rgb(255, 255, 255);&quot;&gt;\(X_{01}\)&lt;/span&gt;&lt;span style=&quot;color: rgb(17, 17, 17); font-size: 18px; text-align: left; background-color: rgb(255, 255, 255);&quot;&gt;&lt;br&gt;&lt;/span&gt;&lt;span style=&quot;color: rgb(17, 17, 17); font-size: 18px; text-align: left; background-color: rgb(255, 255, 255);&quot;&gt;♣&lt;/span&gt;&lt;span style=&quot;color: rgb(17, 17, 17); font-size: 18px; text-align: left; background-color: rgb(255, 255, 255);&quot;&gt;♡&lt;/span&gt;&lt;span style=&quot;color: rgb(17, 17, 17); font-size: 18px; text-align: left; background-color: rgb(255, 255, 255);&quot;&gt;♣&lt;/span&gt;&lt;span style=&quot;color: rgb(17, 17, 17); font-size: 18px; text-align: left; background-color: rgb(255, 255, 255);&quot;&gt;♡&amp;nbsp;&lt;/span&gt;&lt;span style=&quot;font-size: 14px; text-align: left; background-color: rgb(255, 255, 255);&quot;&gt;\(X_{00}\)&lt;/span&gt;&lt;/font&gt;&lt;span style=&quot;font-weight: 700; color: rgb(17, 17, 17); font-family: &amp;quot;Microsoft YaHei&amp;quot;, Arial, Helvetica, sans-serif; font-size: 18px; text-align: left; background-color: rgb(255, 255, 255);&quot;&gt;&lt;br&gt;&lt;/span&gt;" style="rounded=1;whiteSpace=wrap;html=1;arcSize=0;" parent="1" vertex="1">
          <mxGeometry x="304" y="90" width="106" height="90" as="geometry" />
        </mxCell>
        <mxCell id="S7Zaa9b5yC5hJfz1Xt58-1" value="" style="whiteSpace=wrap;html=1;rounded=1;arcSize=0;" vertex="1" parent="1">
          <mxGeometry x="184" y="260" width="96" height="60" as="geometry" />
        </mxCell>
        <mxCell id="S7Zaa9b5yC5hJfz1Xt58-9" value="" style="endArrow=classic;html=1;fontColor=#000000;strokeColor=default;strokeWidth=2;curved=1;exitX=0.5;exitY=1;exitDx=0;exitDy=0;entryX=0.5;entryY=0;entryDx=0;entryDy=0;" edge="1" parent="1" source="wGAC3NJqTAk7x0Rz0knj-1" target="S7Zaa9b5yC5hJfz1Xt58-1">
          <mxGeometry width="50" height="50" relative="1" as="geometry">
            <mxPoint x="450" y="280" as="sourcePoint" />
            <mxPoint x="500" y="230" as="targetPoint" />
            <Array as="points">
              <mxPoint x="350" y="220" />
              <mxPoint x="260" y="220" />
            </Array>
          </mxGeometry>
        </mxCell>
      </root>
    </mxGraphModel>
  </diagram>
</mxfile>
